<svg xmlns="http://www.w3.org/2000/svg" viewBox="0 0 24 24" width="512" height="512" fill="none">
  <linearGradient id="g" x1="0" x2="1" y1="0" y2="1">
    <stop offset="0" stop-color="#f58529"/>
    <stop offset="0.5" stop-color="#dd2a7b"/>
    <stop offset="1" stop-color="#515bd4"/>
  </linearGradient>
  <rect width="24" height="24" rx="4" fill="url(#g)"/>
  <path d="M12 7a5 5 0 100 10 5 5 0 000-10zm0 1.8a3.2 3.2 0 110 6.4 3.2 3.2 0 010-6.4zM17.6 7.1a1.1 1.1 0 11-2.2 0 1.1 1.1 0 012.2 0z" fill="#fff"/>
  <path d="M18 6.5a5.5 5.5 0 00-1-.1c-1.3-.1-4.6-.1-5.9 0a5.5 5.5 0 00-1 .1 3.6 3.6 0 00-1 0 3 3 0 00-2 2c-.2.4-.5 1.1-.5 2.7s.3 2.3.5 2.7a3 3 0 002 2c.4.2 1.1.4 2 .5s.9.1 1 .1c1.3.1 4.6.1 5.9 0a5.5 5.5 0 001-.1 3 3 0 002-2c.2-.4.5-1.1.5-2.7s-.3-2.3-.5-2.7a3 3 0 00-2-2z" fill="#fff" opacity="0.15"/>
</svg>

